<svg width="110" height="133" viewBox="0 0 110 133" fill="none" xmlns="http://www.w3.org/2000/svg">
<path d="M-4.11634 0.637935C-5.39537 1.01801 -6.55258 2.16911 -6.82057 3.33106C-7.34436 5.56809 -4.83503 7.80512 -2.32569 7.33817C-0.437601 6.99067 1.02415 5.27489 0.84143 3.65684C0.707437 2.51661 -0.254882 1.34379 -1.47301 0.811685C-2.21606 0.496763 -3.3611 0.420748 -4.11634 0.637935Z" fill="#F8974E"/>
<path d="M11.4756 0.637935C10.1966 1.01801 9.0394 2.16911 8.77141 3.33106C8.24762 5.56809 10.757 7.80512 13.2663 7.33817C15.1544 6.99067 16.6161 5.27489 16.4334 3.65684C16.2994 2.51661 15.3371 1.34379 14.119 0.811685C13.3759 0.496763 12.2309 0.420748 11.4756 0.637935Z" fill="#F8974E"/>
<path d="M27.0677 0.637935C25.7887 1.01801 24.6314 2.16911 24.3635 3.33106C23.8397 5.56809 26.349 7.80512 28.8583 7.33817C30.7464 6.99067 32.2082 5.27489 32.0255 3.65684C31.8915 2.51661 30.9291 1.34379 29.711 0.811685C28.968 0.496763 27.8229 0.420748 27.0677 0.637935Z" fill="#F8974E"/>
<path d="M42.6597 0.637935C41.3806 1.01801 40.2234 2.16911 39.9554 3.33106C39.4316 5.56809 41.941 7.80512 44.4503 7.33817C46.3384 6.99067 47.8002 5.27489 47.6174 3.65684C47.4834 2.51661 46.5211 1.34379 45.303 0.811685C44.5599 0.496763 43.4149 0.420748 42.6597 0.637935Z" fill="#F8974E"/>
<path d="M58.2516 0.637935C56.9726 1.01801 55.8154 2.16911 55.5474 3.33106C55.0236 5.56809 57.5329 7.80512 60.0423 7.33817C61.9304 6.99067 63.3921 5.27489 63.2094 3.65684C63.0754 2.51661 62.1131 1.34379 60.895 0.811685C60.1519 0.496763 59.0069 0.420748 58.2516 0.637935Z" fill="#F8974E"/>
<path d="M73.8436 0.637935C72.5646 1.01801 71.4074 2.16911 71.1394 3.33106C70.6156 5.56809 73.1249 7.80512 75.6343 7.33817C77.5223 6.99067 78.9841 5.27489 78.8014 3.65684C78.6674 2.51661 77.7051 1.34379 76.4869 0.811685C75.7439 0.496763 74.5989 0.420748 73.8436 0.637935Z" fill="#F8974E"/>
<path d="M89.4356 0.63791C88.1566 1.01799 86.9994 2.16908 86.7314 3.33104C86.4269 4.60158 87.1212 5.98072 88.4611 6.79518C89.7645 7.59877 91.2506 7.60963 92.5662 6.82775C94.7223 5.54635 95.0146 3.15729 93.2118 1.56096C92.1764 0.627051 90.6903 0.268691 89.4356 0.63791Z" fill="#F8974E"/>
<path d="M105.028 0.63791C103.749 1.01799 102.591 2.16908 102.323 3.33104C102.019 4.60158 102.713 5.98072 104.053 6.79518C105.357 7.59877 106.843 7.60963 108.158 6.82775C110.314 5.54635 110.607 3.15729 108.804 1.56096C107.768 0.627051 106.282 0.268691 105.028 0.63791Z" fill="#F8974E"/>
<path d="M-4.11634 14.538C-5.39537 14.918 -6.55258 16.0691 -6.82057 17.2311C-7.34436 19.4681 -4.83503 21.7051 -2.32569 21.2382C-0.437601 20.8907 1.02415 19.1749 0.84143 17.5569C0.707437 16.4166 -0.254882 15.2438 -1.47301 14.7117C-2.21606 14.3968 -3.3611 14.3208 -4.11634 14.538Z" fill="#F8974E"/>
<path d="M11.4756 14.538C10.1966 14.918 9.0394 16.0691 8.77141 17.2311C8.24762 19.4681 10.757 21.7051 13.2663 21.2382C15.1544 20.8907 16.6161 19.1749 16.4334 17.5569C16.2994 16.4166 15.3371 15.2438 14.119 14.7117C13.3759 14.3968 12.2309 14.3208 11.4756 14.538Z" fill="#F8974E"/>
<path d="M27.0677 14.538C25.7887 14.918 24.6314 16.0691 24.3635 17.2311C23.8397 19.4681 26.349 21.7051 28.8583 21.2382C30.7464 20.8907 32.2082 19.1749 32.0255 17.5569C31.8915 16.4166 30.9291 15.2438 29.711 14.7117C28.968 14.3968 27.8229 14.3208 27.0677 14.538Z" fill="#F8974E"/>
<path d="M42.6597 14.538C41.3806 14.918 40.2234 16.0691 39.9554 17.2311C39.4316 19.4681 41.941 21.7051 44.4503 21.2382C46.3384 20.8907 47.8002 19.1749 47.6174 17.5569C47.4834 16.4166 46.5211 15.2438 45.303 14.7117C44.5599 14.3968 43.4149 14.3208 42.6597 14.538Z" fill="#F8974E"/>
<path d="M58.2516 14.538C56.9726 14.918 55.8154 16.0691 55.5474 17.2311C55.0236 19.4681 57.5329 21.7051 60.0423 21.2382C61.9304 20.8907 63.3921 19.1749 63.2094 17.5569C63.0754 16.4166 62.1131 15.2438 60.895 14.7117C60.1519 14.3968 59.0069 14.3208 58.2516 14.538Z" fill="#F8974E"/>
<path d="M73.8436 14.538C72.5646 14.918 71.4074 16.0691 71.1394 17.2311C70.6156 19.4681 73.1249 21.7051 75.6343 21.2382C77.5223 20.8907 78.9841 19.1749 78.8014 17.5569C78.6674 16.4166 77.7051 15.2438 76.4869 14.7117C75.7439 14.3968 74.5989 14.3208 73.8436 14.538Z" fill="#F8974E"/>
<path d="M89.4356 14.5379C88.1566 14.918 86.9994 16.0691 86.7314 17.2311C86.4269 18.5016 87.1212 19.8807 88.4611 20.6952C89.7645 21.4988 91.2506 21.5097 92.5662 20.7278C94.7223 19.4464 95.0146 17.0573 93.2118 15.461C92.1764 14.5271 90.6903 14.1687 89.4356 14.5379Z" fill="#F8974E"/>
<path d="M105.028 14.5379C103.749 14.918 102.591 16.0691 102.323 17.2311C102.019 18.5016 102.713 19.8807 104.053 20.6952C105.357 21.4988 106.843 21.5097 108.158 20.7278C110.314 19.4464 110.607 17.0573 108.804 15.461C107.768 14.5271 106.282 14.1687 105.028 14.5379Z" fill="#F8974E"/>
<path d="M-4.11634 28.4379C-5.39537 28.8179 -6.55258 29.969 -6.82057 31.131C-7.34436 33.368 -4.83503 35.605 -2.32569 35.1381C-0.437601 34.7906 1.02415 33.0748 0.84143 31.4568C0.707437 30.3165 -0.254882 29.1437 -1.47301 28.6116C-2.21606 28.2967 -3.3611 28.2207 -4.11634 28.4379Z" fill="#F8974E"/>
<path d="M11.4756 28.4379C10.1966 28.8179 9.0394 29.969 8.77141 31.131C8.24762 33.368 10.757 35.605 13.2663 35.1381C15.1544 34.7906 16.6161 33.0748 16.4334 31.4568C16.2994 30.3165 15.3371 29.1437 14.119 28.6116C13.3759 28.2967 12.2309 28.2207 11.4756 28.4379Z" fill="#F8974E"/>
<path d="M27.0677 28.4379C25.7887 28.8179 24.6314 29.969 24.3635 31.131C23.8397 33.368 26.349 35.605 28.8583 35.1381C30.7464 34.7906 32.2082 33.0748 32.0255 31.4568C31.8915 30.3165 30.9291 29.1437 29.711 28.6116C28.968 28.2967 27.8229 28.2207 27.0677 28.4379Z" fill="#F8974E"/>
<path d="M42.6597 28.4379C41.3806 28.8179 40.2234 29.969 39.9554 31.131C39.4316 33.368 41.941 35.605 44.4503 35.1381C46.3384 34.7906 47.8002 33.0748 47.6174 31.4568C47.4834 30.3165 46.5211 29.1437 45.303 28.6116C44.5599 28.2967 43.4149 28.2207 42.6597 28.4379Z" fill="#F8974E"/>
<path d="M58.2516 28.4379C56.9726 28.8179 55.8154 29.969 55.5474 31.131C55.0236 33.368 57.5329 35.605 60.0423 35.1381C61.9304 34.7906 63.3921 33.0748 63.2094 31.4568C63.0754 30.3165 62.1131 29.1437 60.895 28.6116C60.1519 28.2967 59.0069 28.2207 58.2516 28.4379Z" fill="#F8974E"/>
<path d="M73.8436 28.4379C72.5646 28.8179 71.4074 29.969 71.1394 31.131C70.6156 33.368 73.1249 35.605 75.6343 35.1381C77.5223 34.7906 78.9841 33.0748 78.8014 31.4568C78.6674 30.3165 77.7051 29.1437 76.4869 28.6116C75.7439 28.2967 74.5989 28.2207 73.8436 28.4379Z" fill="#F8974E"/>
<path d="M89.4356 28.4379C88.1566 28.8179 86.9994 29.969 86.7314 31.131C86.2076 33.368 88.7169 35.605 91.2262 35.1381C93.1143 34.7906 94.5761 33.0748 94.3934 31.4568C94.2594 30.3165 93.2971 29.1437 92.0789 28.6116C91.3359 28.2967 90.1908 28.2207 89.4356 28.4379Z" fill="#F8974E"/>
<path d="M105.028 28.4379C103.749 28.8179 102.591 29.969 102.323 31.131C101.8 33.368 104.309 35.605 106.818 35.1381C108.706 34.7906 110.168 33.0748 109.985 31.4568C109.851 30.3165 108.889 29.1437 107.671 28.6116C106.928 28.2967 105.783 28.2207 105.028 28.4379Z" fill="#F8974E"/>
<path d="M-4.11634 42.3379C-5.39537 42.718 -6.55258 43.8691 -6.82057 45.031C-7.34436 47.268 -4.83503 49.5051 -2.32569 49.0381C-0.437601 48.6906 1.02415 46.9748 0.84143 45.3568C0.707437 44.2166 -0.254882 43.0437 -1.47301 42.5116C-2.21606 42.1967 -3.3611 42.1207 -4.11634 42.3379Z" fill="#F8974E"/>
<path d="M11.4756 42.3379C10.1966 42.718 9.0394 43.8691 8.77141 45.031C8.24762 47.268 10.757 49.5051 13.2663 49.0381C15.1544 48.6906 16.6161 46.9748 16.4334 45.3568C16.2994 44.2166 15.3371 43.0437 14.119 42.5116C13.3759 42.1967 12.2309 42.1207 11.4756 42.3379Z" fill="#F8974E"/>
<path d="M27.0677 42.3379C25.7887 42.718 24.6314 43.8691 24.3635 45.031C23.8397 47.268 26.349 49.5051 28.8583 49.0381C30.7464 48.6906 32.2082 46.9748 32.0255 45.3568C31.8915 44.2166 30.9291 43.0437 29.711 42.5116C28.968 42.1967 27.8229 42.1207 27.0677 42.3379Z" fill="#F8974E"/>
<path d="M42.6597 42.3379C41.3806 42.718 40.2234 43.8691 39.9554 45.031C39.4316 47.268 41.941 49.5051 44.4503 49.0381C46.3384 48.6906 47.8002 46.9748 47.6174 45.3568C47.4834 44.2166 46.5211 43.0437 45.303 42.5116C44.5599 42.1967 43.4149 42.1207 42.6597 42.3379Z" fill="#F8974E"/>
<path d="M58.2516 42.3379C56.9726 42.718 55.8154 43.8691 55.5474 45.031C55.0236 47.268 57.5329 49.5051 60.0423 49.0381C61.9304 48.6906 63.3921 46.9748 63.2094 45.3568C63.0754 44.2166 62.1131 43.0437 60.895 42.5116C60.1519 42.1967 59.0069 42.1207 58.2516 42.3379Z" fill="#F8974E"/>
<path d="M73.8436 42.3379C72.5646 42.718 71.4074 43.8691 71.1394 45.031C70.6156 47.268 73.1249 49.5051 75.6343 49.0381C77.5223 48.6906 78.9841 46.9748 78.8014 45.3568C78.6674 44.2166 77.7051 43.0437 76.4869 42.5116C75.7439 42.1967 74.5989 42.1207 73.8436 42.3379Z" fill="#F8974E"/>
<path d="M89.4356 42.3379C88.1566 42.718 86.9994 43.8691 86.7314 45.031C86.2076 47.268 88.7169 49.5051 91.2262 49.0381C93.1143 48.6906 94.5761 46.9748 94.3934 45.3568C94.2594 44.2166 93.2971 43.0437 92.0789 42.5116C91.3359 42.1967 90.1908 42.1207 89.4356 42.3379Z" fill="#F8974E"/>
<path d="M105.028 42.3379C103.749 42.718 102.591 43.8691 102.323 45.031C101.8 47.268 104.309 49.5051 106.818 49.0381C108.706 48.6906 110.168 46.9748 109.985 45.3568C109.851 44.2166 108.889 43.0437 107.671 42.5116C106.928 42.1967 105.783 42.1207 105.028 42.3379Z" fill="#F8974E"/>
<path d="M-4.11634 56.2379C-5.39537 56.618 -6.55258 57.7691 -6.82057 58.931C-7.34436 61.1681 -4.83503 63.4051 -2.32569 62.9381C-0.437601 62.5906 1.02415 60.8749 0.84143 59.2568C0.707437 58.1166 -0.254882 56.9438 -1.47301 56.4117C-2.21606 56.0967 -3.3611 56.0207 -4.11634 56.2379Z" fill="#F8974E"/>
<path d="M11.4756 56.2379C10.1966 56.618 9.0394 57.7691 8.77141 58.931C8.24762 61.1681 10.757 63.4051 13.2663 62.9381C15.1544 62.5906 16.6161 60.8749 16.4334 59.2568C16.2994 58.1166 15.3371 56.9438 14.119 56.4117C13.3759 56.0967 12.2309 56.0207 11.4756 56.2379Z" fill="#F8974E"/>
<path d="M27.0677 56.2379C25.7887 56.618 24.6314 57.7691 24.3635 58.931C23.8397 61.1681 26.349 63.4051 28.8583 62.9381C30.7464 62.5906 32.2082 60.8749 32.0255 59.2568C31.8915 58.1166 30.9291 56.9438 29.711 56.4117C28.968 56.0967 27.8229 56.0207 27.0677 56.2379Z" fill="#F8974E"/>
<path d="M42.6597 56.2379C41.3806 56.618 40.2234 57.7691 39.9554 58.931C39.4316 61.1681 41.941 63.4051 44.4503 62.9381C46.3384 62.5906 47.8002 60.8749 47.6174 59.2568C47.4834 58.1166 46.5211 56.9438 45.303 56.4117C44.5599 56.0967 43.4149 56.0207 42.6597 56.2379Z" fill="#F8974E"/>
<path d="M58.2516 56.2379C56.9726 56.618 55.8154 57.7691 55.5474 58.931C55.0236 61.1681 57.5329 63.4051 60.0423 62.9381C61.9304 62.5906 63.3921 60.8749 63.2094 59.2568C63.0754 58.1166 62.1131 56.9438 60.895 56.4117C60.1519 56.0967 59.0069 56.0207 58.2516 56.2379Z" fill="#F8974E"/>
<path d="M73.8436 56.2379C72.5646 56.618 71.4074 57.7691 71.1394 58.931C70.6156 61.1681 73.1249 63.4051 75.6343 62.9381C77.5223 62.5906 78.9841 60.8749 78.8014 59.2568C78.6674 58.1166 77.7051 56.9438 76.4869 56.4117C75.7439 56.0967 74.5989 56.0207 73.8436 56.2379Z" fill="#F8974E"/>
<path d="M89.4356 56.2379C88.1566 56.618 86.9994 57.7691 86.7314 58.931C86.2076 61.1681 88.7169 63.4051 91.2262 62.9381C93.1143 62.5906 94.5761 60.8749 94.3934 59.2568C94.2594 58.1166 93.2971 56.9438 92.0789 56.4117C91.3359 56.0967 90.1908 56.0207 89.4356 56.2379Z" fill="#F8974E"/>
<path d="M105.028 56.2379C103.749 56.618 102.591 57.7691 102.323 58.931C101.8 61.1681 104.309 63.4051 106.818 62.9381C108.706 62.5906 110.168 60.8749 109.985 59.2568C109.851 58.1166 108.889 56.9438 107.671 56.4117C106.928 56.0967 105.783 56.0207 105.028 56.2379Z" fill="#F8974E"/>
<path d="M-4.11634 70.1379C-5.39537 70.518 -6.55258 71.6691 -6.82057 72.8311C-7.34436 75.0681 -4.83503 77.3051 -2.32569 76.8382C-0.437601 76.4907 1.02415 74.7749 0.84143 73.1568C0.707437 72.0166 -0.254882 70.8438 -1.47301 70.3117C-2.21606 69.9967 -3.3611 69.9207 -4.11634 70.1379Z" fill="#F8974E"/>
<path d="M11.4756 70.1379C10.1966 70.518 9.0394 71.6691 8.77141 72.8311C8.24762 75.0681 10.757 77.3051 13.2663 76.8382C15.1544 76.4907 16.6161 74.7749 16.4334 73.1568C16.2994 72.0166 15.3371 70.8438 14.119 70.3117C13.3759 69.9967 12.2309 69.9207 11.4756 70.1379Z" fill="#F8974E"/>
<path d="M27.0677 70.1379C25.7887 70.518 24.6314 71.6691 24.3635 72.8311C23.8397 75.0681 26.349 77.3051 28.8583 76.8382C30.7464 76.4907 32.2082 74.7749 32.0255 73.1568C31.8915 72.0166 30.9291 70.8438 29.711 70.3117C28.968 69.9967 27.8229 69.9207 27.0677 70.1379Z" fill="#F8974E"/>
<path d="M42.6597 70.1379C41.3806 70.518 40.2234 71.6691 39.9554 72.8311C39.4316 75.0681 41.941 77.3051 44.4503 76.8382C46.3384 76.4907 47.8002 74.7749 47.6174 73.1568C47.4834 72.0166 46.5211 70.8438 45.303 70.3117C44.5599 69.9967 43.4149 69.9207 42.6597 70.1379Z" fill="#F8974E"/>
<path d="M58.2516 70.1379C56.9726 70.518 55.8154 71.6691 55.5474 72.8311C55.0236 75.0681 57.5329 77.3051 60.0423 76.8382C61.9304 76.4907 63.3921 74.7749 63.2094 73.1568C63.0754 72.0166 62.1131 70.8438 60.895 70.3117C60.1519 69.9967 59.0069 69.9207 58.2516 70.1379Z" fill="#F8974E"/>
<path d="M73.8436 70.1379C72.5646 70.518 71.4074 71.6691 71.1394 72.8311C70.6156 75.0681 73.1249 77.3051 75.6343 76.8382C77.5223 76.4907 78.9841 74.7749 78.8014 73.1568C78.6674 72.0166 77.7051 70.8438 76.4869 70.3117C75.7439 69.9967 74.5989 69.9207 73.8436 70.1379Z" fill="#F8974E"/>
<path d="M89.4356 70.1379C88.1566 70.518 86.9994 71.6691 86.7314 72.8311C86.2076 75.0681 88.7169 77.3051 91.2262 76.8382C93.1143 76.4907 94.5761 74.7749 94.3934 73.1568C94.2594 72.0166 93.2971 70.8438 92.0789 70.3117C91.3359 69.9967 90.1908 69.9207 89.4356 70.1379Z" fill="#F8974E"/>
<path d="M105.028 70.1379C103.749 70.518 102.591 71.6691 102.323 72.8311C101.8 75.0681 104.309 77.3051 106.818 76.8382C108.706 76.4907 110.168 74.7749 109.985 73.1568C109.851 72.0166 108.889 70.8438 107.671 70.3117C106.928 69.9967 105.783 69.9207 105.028 70.1379Z" fill="#F8974E"/>
<path d="M-4.1163 84.0379C-5.39533 84.418 -6.55255 85.5691 -6.82054 86.7311C-7.12507 88.0016 -6.43074 89.3807 -5.0908 90.1952C-3.78741 90.9988 -2.30129 91.0097 -0.985719 90.2278C1.17036 88.9464 1.46271 86.5573 -0.340113 84.961C-1.37552 84.0271 -2.86163 83.6687 -4.1163 84.0379Z" fill="#F8974E"/>
<path d="M11.4757 84.0379C10.1966 84.418 9.03943 85.5691 8.77144 86.7311C8.46691 88.0016 9.16124 89.3807 10.5012 90.1952C11.8046 90.9988 13.2907 91.0097 14.6063 90.2278C16.7623 88.9464 17.0547 86.5573 15.2519 84.961C14.2165 84.0271 12.7303 83.6687 11.4757 84.0379Z" fill="#F8974E"/>
<path d="M27.0677 84.038C25.2283 84.581 23.9858 86.3837 24.3634 87.9691C24.668 89.2614 26.0201 90.4668 27.4697 90.7383C29.8206 91.1835 32.2691 89.1962 32.0254 87.057C31.8914 85.9167 30.9291 84.7439 29.711 84.2118C28.9679 83.8969 27.8229 83.8209 27.0677 84.038Z" fill="#F8974E"/>
<path d="M42.6597 84.038C40.8203 84.581 39.5778 86.3837 39.9554 87.9691C40.26 89.2614 41.6121 90.4668 43.0616 90.7383C45.4126 91.1835 47.8611 89.1962 47.6174 87.057C47.4834 85.9167 46.5211 84.7439 45.303 84.2118C44.5599 83.8969 43.4149 83.8209 42.6597 84.038Z" fill="#F8974E"/>
<path d="M58.2516 84.038C56.4123 84.581 55.1698 86.3837 55.5474 87.9691C55.8519 89.2614 57.2041 90.4668 58.6536 90.7383C61.0046 91.1835 63.453 89.1962 63.2094 87.057C63.0754 85.9167 62.1131 84.7439 60.895 84.2118C60.1519 83.8969 59.0069 83.8209 58.2516 84.038Z" fill="#F8974E"/>
<path d="M73.8436 84.038C72.0043 84.581 70.7618 86.3837 71.1394 87.9691C71.4439 89.2614 72.796 90.4668 74.2456 90.7383C76.5966 91.1835 79.045 89.1962 78.8014 87.057C78.6674 85.9167 77.7051 84.7439 76.487 84.2118C75.7439 83.8969 74.5989 83.8209 73.8436 84.038Z" fill="#F8974E"/>
<path d="M89.4356 84.038C88.1566 84.418 86.9994 85.5691 86.7314 86.7311C86.2076 88.9681 88.7169 91.2051 91.2262 90.7382C93.1143 90.3907 94.5761 88.6749 94.3934 87.0569C94.2594 85.9166 93.2971 84.7438 92.0789 84.2117C91.3359 83.8968 90.1908 83.8208 89.4356 84.038Z" fill="#F8974E"/>
<path d="M105.028 84.038C103.749 84.418 102.591 85.5691 102.323 86.7311C101.8 88.9681 104.309 91.2051 106.818 90.7382C108.706 90.3907 110.168 88.6749 109.985 87.0569C109.851 85.9166 108.889 84.7438 107.671 84.2117C106.928 83.8968 105.783 83.8208 105.028 84.038Z" fill="#F8974E"/>
<path d="M-4.1163 97.9378C-5.39533 98.3179 -6.55255 99.469 -6.82054 100.631C-7.12507 101.902 -6.43074 103.281 -5.0908 104.095C-3.78741 104.899 -2.30129 104.91 -0.985719 104.128C1.17036 102.846 1.46271 100.457 -0.340113 98.8609C-1.37552 97.927 -2.86163 97.5686 -4.1163 97.9378Z" fill="#F8974E"/>
<path d="M11.4757 97.9378C10.1966 98.3179 9.03943 99.469 8.77144 100.631C8.46691 101.902 9.16124 103.281 10.5012 104.095C11.8046 104.899 13.2907 104.91 14.6063 104.128C16.7623 102.846 17.0547 100.457 15.2519 98.8609C14.2165 97.927 12.7303 97.5686 11.4757 97.9378Z" fill="#F8974E"/>
<path d="M27.0677 97.9379C25.2283 98.4809 23.9858 100.284 24.3634 101.869C24.668 103.161 26.0201 104.367 27.4697 104.638C29.8206 105.083 32.2691 103.096 32.0254 100.957C31.8914 99.8166 30.9291 98.6438 29.711 98.1117C28.9679 97.7968 27.8229 97.7208 27.0677 97.9379Z" fill="#F8974E"/>
<path d="M42.6597 97.9379C40.8203 98.4809 39.5778 100.284 39.9554 101.869C40.26 103.161 41.6121 104.367 43.0616 104.638C45.4126 105.083 47.8611 103.096 47.6174 100.957C47.4834 99.8166 46.5211 98.6438 45.303 98.1117C44.5599 97.7968 43.4149 97.7208 42.6597 97.9379Z" fill="#F8974E"/>
<path d="M58.2516 97.9379C56.4123 98.4809 55.1698 100.284 55.5474 101.869C55.8519 103.161 57.2041 104.367 58.6536 104.638C61.0046 105.083 63.453 103.096 63.2094 100.957C63.0754 99.8166 62.1131 98.6438 60.895 98.1117C60.1519 97.7968 59.0069 97.7208 58.2516 97.9379Z" fill="#F8974E"/>
<path d="M73.8436 97.9379C72.0043 98.4809 70.7618 100.284 71.1394 101.869C71.4439 103.161 72.796 104.367 74.2456 104.638C76.5966 105.083 79.045 103.096 78.8014 100.957C78.6674 99.8166 77.7051 98.6438 76.487 98.1117C75.7439 97.7968 74.5989 97.7208 73.8436 97.9379Z" fill="#F8974E"/>
<path d="M89.4356 97.9379C88.1566 98.3179 86.9994 99.469 86.7314 100.631C86.2076 102.868 88.7169 105.105 91.2262 104.638C93.1143 104.291 94.5761 102.575 94.3934 100.957C94.2594 99.8165 93.2971 98.6437 92.0789 98.1116C91.3359 97.7967 90.1908 97.7207 89.4356 97.9379Z" fill="#F8974E"/>
<path d="M105.028 97.9379C103.749 98.3179 102.591 99.469 102.323 100.631C101.8 102.868 104.309 105.105 106.818 104.638C108.706 104.291 110.168 102.575 109.985 100.957C109.851 99.8165 108.889 98.6437 107.671 98.1116C106.928 97.7967 105.783 97.7207 105.028 97.9379Z" fill="#F8974E"/>
<path d="M-4.1163 111.838C-5.39533 112.218 -6.55255 113.369 -6.82054 114.531C-7.12507 115.802 -6.43074 117.181 -5.0908 117.995C-3.78741 118.799 -2.30129 118.81 -0.985719 118.028C1.17036 116.746 1.46271 114.357 -0.340113 112.761C-1.37552 111.827 -2.86163 111.469 -4.1163 111.838Z" fill="#F8974E"/>
<path d="M11.4757 111.838C10.1966 112.218 9.03943 113.369 8.77144 114.531C8.46691 115.802 9.16124 117.181 10.5012 117.995C11.8046 118.799 13.2907 118.81 14.6063 118.028C16.7623 116.746 17.0547 114.357 15.2519 112.761C14.2165 111.827 12.7303 111.469 11.4757 111.838Z" fill="#F8974E"/>
<path d="M27.0677 111.838C25.7887 112.218 24.6314 113.369 24.3635 114.531C23.8397 116.768 26.349 119.005 28.8583 118.538C30.7464 118.191 32.2082 116.475 32.0255 114.857C31.8915 113.717 30.9291 112.544 29.711 112.012C28.968 111.697 27.8229 111.621 27.0677 111.838Z" fill="#F8974E"/>
<path d="M42.6597 111.838C41.3806 112.218 40.2234 113.369 39.9554 114.531C39.4316 116.768 41.941 119.005 44.4503 118.538C46.3384 118.191 47.8002 116.475 47.6174 114.857C47.4834 113.717 46.5211 112.544 45.303 112.012C44.5599 111.697 43.4149 111.621 42.6597 111.838Z" fill="#F8974E"/>
<path d="M58.2516 111.838C56.9726 112.218 55.8154 113.369 55.5474 114.531C55.0236 116.768 57.5329 119.005 60.0423 118.538C61.9304 118.191 63.3921 116.475 63.2094 114.857C63.0754 113.717 62.1131 112.544 60.895 112.012C60.1519 111.697 59.0069 111.621 58.2516 111.838Z" fill="#F8974E"/>
<path d="M73.8436 111.838C72.5646 112.218 71.4074 113.369 71.1394 114.531C70.6156 116.768 73.1249 119.005 75.6343 118.538C77.5223 118.191 78.9841 116.475 78.8014 114.857C78.6674 113.717 77.7051 112.544 76.4869 112.012C75.7439 111.697 74.5989 111.621 73.8436 111.838Z" fill="#F8974E"/>
<path d="M89.4356 111.838C88.1566 112.218 86.9994 113.369 86.7314 114.531C86.2076 116.768 88.7169 119.005 91.2262 118.538C93.1143 118.191 94.5761 116.475 94.3934 114.857C94.2594 113.717 93.2971 112.544 92.0789 112.012C91.3359 111.697 90.1908 111.621 89.4356 111.838Z" fill="#F8974E"/>
<path d="M105.028 111.838C103.749 112.218 102.591 113.369 102.323 114.531C101.8 116.768 104.309 119.005 106.818 118.538C108.706 118.191 110.168 116.475 109.985 114.857C109.851 113.717 108.889 112.544 107.671 112.012C106.928 111.697 105.783 111.621 105.028 111.838Z" fill="#F8974E"/>
<path d="M-4.11634 125.738C-5.39537 126.118 -6.55258 127.269 -6.82057 128.431C-7.34436 130.668 -4.83503 132.905 -2.32569 132.438C-0.437601 132.091 1.02415 130.375 0.84143 128.757C0.707437 127.617 -0.254882 126.444 -1.47301 125.912C-2.21606 125.597 -3.3611 125.521 -4.11634 125.738Z" fill="#F8974E"/>
<path d="M11.4756 125.738C10.1966 126.118 9.0394 127.269 8.77141 128.431C8.24762 130.668 10.757 132.905 13.2663 132.438C15.1544 132.091 16.6161 130.375 16.4334 128.757C16.2994 127.617 15.3371 126.444 14.119 125.912C13.3759 125.597 12.2309 125.521 11.4756 125.738Z" fill="#F8974E"/>
<path d="M27.0677 125.738C25.7887 126.118 24.6314 127.269 24.3635 128.431C23.8397 130.668 26.349 132.905 28.8583 132.438C30.7464 132.091 32.2082 130.375 32.0255 128.757C31.8915 127.617 30.9291 126.444 29.711 125.912C28.968 125.597 27.8229 125.521 27.0677 125.738Z" fill="#F8974E"/>
<path d="M42.6597 125.738C41.3806 126.118 40.2234 127.269 39.9554 128.431C39.4316 130.668 41.941 132.905 44.4503 132.438C46.3384 132.091 47.8002 130.375 47.6174 128.757C47.4834 127.617 46.5211 126.444 45.303 125.912C44.5599 125.597 43.4149 125.521 42.6597 125.738Z" fill="#F8974E"/>
<path d="M58.2516 125.738C56.9726 126.118 55.8154 127.269 55.5474 128.431C55.0236 130.668 57.5329 132.905 60.0423 132.438C61.9304 132.091 63.3921 130.375 63.2094 128.757C63.0754 127.617 62.1131 126.444 60.895 125.912C60.1519 125.597 59.0069 125.521 58.2516 125.738Z" fill="#F8974E"/>
<path d="M73.8436 125.738C72.5646 126.118 71.4074 127.269 71.1394 128.431C70.6156 130.668 73.1249 132.905 75.6343 132.438C77.5223 132.091 78.9841 130.375 78.8014 128.757C78.6674 127.617 77.7051 126.444 76.4869 125.912C75.7439 125.597 74.5989 125.521 73.8436 125.738Z" fill="#F8974E"/>
<path d="M89.4356 125.738C88.1566 126.118 86.9994 127.269 86.7314 128.431C86.2076 130.668 88.7169 132.905 91.2262 132.438C93.1143 132.091 94.5761 130.375 94.3934 128.757C94.2594 127.617 93.2971 126.444 92.0789 125.912C91.3359 125.597 90.1908 125.521 89.4356 125.738Z" fill="#F8974E"/>
<path d="M105.028 125.738C103.749 126.118 102.591 127.269 102.323 128.431C101.8 130.668 104.309 132.905 106.818 132.438C108.706 132.091 110.168 130.375 109.985 128.757C109.851 127.617 108.889 126.444 107.671 125.912C106.928 125.597 105.783 125.521 105.028 125.738Z" fill="#F8974E"/>
</svg>
